<?xml version="1.0" encoding="UTF-8" standalone="no"?>
<svg
   xmlns:dc="http://purl.org/dc/elements/1.1/"
   xmlns:cc="http://creativecommons.org/ns#"
   xmlns:rdf="http://www.w3.org/1999/02/22-rdf-syntax-ns#"
   xmlns:svg="http://www.w3.org/2000/svg"
   xmlns="http://www.w3.org/2000/svg"
   xmlns:sodipodi="http://sodipodi.sourceforge.net/DTD/sodipodi-0.dtd"
   xmlns:inkscape="http://www.inkscape.org/namespaces/inkscape"
   width="128"
   height="128"
   viewBox="0 0 33.866666 33.866668"
   version="1.1"
   id="svg1135"
   inkscape:version="1.0.2 (e86c870879, 2021-01-15)"
   sodipodi:docname="door.svg">
  <defs
     id="defs1129" />
  <sodipodi:namedview
     id="base"
     pagecolor="#ffffff"
     bordercolor="#666666"
     borderopacity="1.0"
     inkscape:pageopacity="0.0"
     inkscape:pageshadow="2"
     inkscape:zoom="1.4"
     inkscape:cx="-159.70777"
     inkscape:cy="89.08801"
     inkscape:document-units="mm"
     inkscape:current-layer="layer1"
     inkscape:document-rotation="0"
     showgrid="true"
     units="px"
     inkscape:window-width="1920"
     inkscape:window-height="1015"
     inkscape:window-x="1680"
     inkscape:window-y="40"
     inkscape:window-maximized="1">
    <inkscape:grid
       type="xygrid"
       id="grid1700"
       empspacing="32" />
  </sodipodi:namedview>
  <metadata
     id="metadata1132">
    <rdf:RDF>
      <cc:Work
         rdf:about="">
        <dc:format>image/svg+xml</dc:format>
        <dc:type
           rdf:resource="http://purl.org/dc/dcmitype/StillImage" />
        <dc:title></dc:title>
      </cc:Work>
    </rdf:RDF>
  </metadata>
  <g
     inkscape:label="Calque 1"
     inkscape:groupmode="layer"
     id="layer1">
    <path
       id="path1702-9"
       style="fill:#6a4128;fill-opacity:1;stroke-width:0.489809;stroke-linecap:round;stroke-linejoin:round;paint-order:markers stroke fill"
       d="M 16.990247,2.5188843 C 8.3622037,2.5589069 1.3889697,9.5646382 1.3890631,18.192776 V 33.866667 H 9.2260085 V 18.192776 c -3e-7,-4.328225 3.5087195,-7.836946 7.8369445,-7.836946 4.328225,0 7.836946,3.508721 7.836946,7.836946 v 15.673891 h 7.836945 V 18.192776 c 0,-8.656452 -7.01744,-15.6738922 -15.673891,-15.6738917 -0.02423,-5.61e-5 -0.04848,-5.61e-5 -0.0727,0 z"
       sodipodi:nodetypes="cccccscccccc" />
    <path
       id="path1702"
       style="fill:#cc560f;stroke-width:2;stroke-linecap:round;stroke-linejoin:round;paint-order:markers stroke fill;fill-opacity:1"
       d="M 63.703125,0 C 28.472892,0.16342105 -3.8122719e-4,28.769388 0,64 v 64 h 32 l 0,-64 c -1e-6,-17.673112 14.326888,-32.000001 32,-32 17.673112,-1e-6 32.000001,14.326888 32,32 l 10e-7,64 H 128 l 0,-64 C 128,28.653775 99.346225,-2.2091393e-6 64,0 63.901042,-2.2951794e-4 63.802083,-2.2951794e-4 63.703125,0 Z"
       transform="scale(0.26458333)"
       sodipodi:nodetypes="cccccscccccc" />
  </g>
</svg>
