<?xml version="1.0" encoding="UTF-8" standalone="no"?>
<svg
   xmlns:dc="http://purl.org/dc/elements/1.1/"
   xmlns:cc="http://creativecommons.org/ns#"
   xmlns:rdf="http://www.w3.org/1999/02/22-rdf-syntax-ns#"
   xmlns:svg="http://www.w3.org/2000/svg"
   xmlns="http://www.w3.org/2000/svg"
   xmlns:sodipodi="http://sodipodi.sourceforge.net/DTD/sodipodi-0.dtd"
   xmlns:inkscape="http://www.inkscape.org/namespaces/inkscape"
   width="128"
   height="128"
   viewBox="0 0 33.866666 33.866668"
   version="1.1"
   id="svg8"
   inkscape:version="1.0.2 (e86c870879, 2021-01-15)"
   sodipodi:docname="key.svg">
  <defs
     id="defs2" />
  <sodipodi:namedview
     id="base"
     pagecolor="#ffffff"
     bordercolor="#666666"
     borderopacity="1.0"
     inkscape:pageopacity="0.0"
     inkscape:pageshadow="2"
     inkscape:zoom="2.8"
     inkscape:cx="63.20473"
     inkscape:cy="85.297897"
     inkscape:document-units="mm"
     inkscape:current-layer="layer1"
     inkscape:document-rotation="0"
     showgrid="true"
     units="px"
     inkscape:snap-object-midpoints="true"
     inkscape:snap-center="true"
     inkscape:window-width="1920"
     inkscape:window-height="1015"
     inkscape:window-x="1680"
     inkscape:window-y="40"
     inkscape:window-maximized="1">
    <inkscape:grid
       type="xygrid"
       id="grid833"
       empspacing="32" />
  </sodipodi:namedview>
  <metadata
     id="metadata5">
    <rdf:RDF>
      <cc:Work
         rdf:about="">
        <dc:format>image/svg+xml</dc:format>
        <dc:type
           rdf:resource="http://purl.org/dc/dcmitype/StillImage" />
        <dc:title></dc:title>
      </cc:Work>
    </rdf:RDF>
  </metadata>
  <g
     inkscape:label="Calque 1"
     inkscape:groupmode="layer"
     id="layer1">
    <path
       id="path839"
       style="fill:#f1ea00;fill-opacity:1;stroke:none;stroke-width:0.529167;stroke-linecap:round;stroke-linejoin:round;paint-order:markers stroke fill"
       d="M 24.809774,3.3939533 14.904407,18.194394 a 6.8791666,6.8791666 0 0 0 -8.6178638,2.41117 6.8791666,6.8791666 0 0 0 1.8908169,9.543095 6.8791666,6.8791666 0 0 0 9.5430959,-1.890816 6.8791666,6.8791666 0 0 0 -1.056985,-8.886175 l 4.460476,-6.664772 2.858478,1.913069 L 25.748336,11.98137 22.889858,10.0683 23.184176,9.6285345 24.503474,10.51149 25.23927,9.4120751 23.919972,8.5291198 24.214291,8.0893539 28.392066,10.885379 30.010818,8.4666667 25.833042,5.6706417 26.568838,4.571227 Z M 14.63261,20.460589 a 4.7624997,4.7624997 0 0 1 0.01975,0.01322 4.7624997,4.7624997 0 0 1 1.309027,6.606759 4.7624997,4.7624997 0 0 1 -6.6067582,1.309027 4.7624997,4.7624997 0 0 1 -1.3090271,-6.606759 4.7624997,4.7624997 0 0 1 6.5870033,-1.322248 z" />
  </g>
</svg>
